<?xml version="1.0" encoding="UTF-8"?>
<svg id="Calque_1" xmlns="http://www.w3.org/2000/svg" version="1.1" viewBox="0 0 50 50">
  <!-- Generator: Adobe Illustrator 29.5.1, SVG Export Plug-In . SVG Version: 2.1.0 Build 141)  -->
  <defs>
    <style>
      .st0 {
        fill: #fff;
      }
    </style>
  </defs>
  <path class="st0" d="M25,2C12.31,2,2,12.31,2,25s10.31,23,23,23,23-10.31,23-23S37.69,2,25,2ZM25,4c11.61,0,21,9.39,21,21,0,.07,0,.14,0,.21-.64-.06-1.38-.12-2.32-.15-1.33-.05-3-.03-4.9.06.07-.49.12-.99.12-1.5.1-1.87-.53-3.62-1.55-5.17.25-.85.54-1.94.61-3.17.08-1.4-.04-2.96-1.17-4.01l-.29-.27h-.39c-2.68,0-4.52,1.12-5.64,2.01-1.62-.63-3.44-1.01-5.46-1.01s-3.86.39-5.55,1.02c-1.12-.89-2.96-2.02-5.65-2.02h-.39l-.29.27c-1.1,1.02-1.2,2.53-1.13,3.93.06,1.23.33,2.35.58,3.25-1.04,1.58-1.66,3.37-1.66,5.15,0,.51.05,1.01.12,1.5-1.81-.08-3.42-.1-4.69-.05-.94.03-1.68.09-2.32.15,0-.07,0-.13,0-.2C4,13.39,13.39,4,25,4ZM14.4,13.13c2.02.19,3.54,1.09,4.24,1.72l.47.41.58-.24c1.58-.65,3.35-1.03,5.32-1.03s3.74.38,5.2,1.02l.59.26.48-.43c.7-.62,2.22-1.53,4.24-1.72.27.44.5,1.08.45,2.04-.07,1.15-.37,2.39-.61,3.13l-.15.48.3.41c.99,1.35,1.49,2.81,1.41,4.35v.03s0,.03,0,.03c0,2.5-.9,4.49-2.81,5.97-1.91,1.48-4.94,2.43-9.19,2.43s-7.28-.95-9.19-2.43c-1.91-1.48-2.81-3.48-2.81-5.97,0-1.46.53-3.08,1.51-4.41l.29-.4-.14-.47c-.23-.79-.52-2.06-.57-3.22-.05-.96.18-1.56.41-1.97ZM8.88,26.02c.71,0,1.52.05,2.33.09.08.31.17.62.27.92-3.31.07-5.78.4-7.31.69-.06-.5-.12-1-.14-1.52,1.13-.11,2.72-.2,4.85-.18ZM41.12,26.04c2.13-.03,3.72.07,4.85.18-.03.5-.08,1-.14,1.49-1.58-.29-4.12-.62-7.51-.68.11-.29.19-.59.27-.9.9-.05,1.77-.09,2.54-.1ZM11.91,28.02c.6,1.2,1.45,2.26,2.58,3.13,1.54,1.19,3.54,2.02,5.99,2.47-.32.33-.61.69-.87,1.07l-.06-.05s-.5.25-1.25.31c-.75.07-1.68.05-2.5.05-1.23,0-1.76-.58-2.63-1.63-.48-.64-1.06-1.16-1.62-1.56-.58-.41-1.07-.69-1.68-.79h-.08s-.08-.01-.08-.01c-.47,0-.92.03-1.34.52-.21.24-.36.69-.26,1.06s.33.61.55.75c1.37.91,1.61,2.71,2.46,4.32.8,1.59,2.53,2.35,4.29,2.35h2.6v4.8c-7.03-2.48-12.34-8.6-13.67-16.1,1.53-.29,4.09-.64,7.58-.68ZM37.88,28.03c3.56.03,6.2.38,7.79.67-1.33,7.5-6.64,13.62-13.67,16.11v-5.2c0-1.58-.52-3.33-1.43-4.79-.27-.44-.6-.86-.96-1.24,2.32-.46,4.22-1.28,5.7-2.42,1.12-.87,1.98-1.93,2.57-3.13ZM23.7,34.1h2.8c.81,0,1.68.65,2.38,1.77s1.12,2.62,1.12,3.73v5.8c-1.6.39-3.28.6-5,.6s-3.4-.21-5-.6v-5.8c0-1.09.47-2.59,1.21-3.71.74-1.12,1.68-1.79,2.49-1.79ZM12.31,35.28c.87.9,1.91,1.72,3.49,1.72.78,0,1.75.03,2.68-.05,0,0,0,0,0,0-.12.35-.21.7-.29,1.06h-2.8c-1.23,0-2.1-.45-2.51-1.25h0s0-.03,0-.03c-.16-.31-.38-.92-.57-1.45Z"/>
</svg>