<?xml version="1.0" encoding="UTF-8"?>
<svg id="Calque_1" xmlns="http://www.w3.org/2000/svg" version="1.1" viewBox="0 0 50 50">
  <!-- Generator: Adobe Illustrator 29.5.1, SVG Export Plug-In . SVG Version: 2.1.0 Build 141)  -->
  <defs>
    <style>
      .st0 {
        fill: #fff;
      }
    </style>
  </defs>
  <path class="st0" d="M39.9,7.48L.47,46.91c-.72.72-.72,1.9,0,2.62.36.36.84.54,1.31.54s.95-.18,1.31-.54L42.52,10.1c.72-.72.72-1.9,0-2.62-.72-.72-1.9-.72-2.62,0Z"/>
  <path class="st0" d="M48.15,0h-27.9c-1.02,0-1.85.83-1.85,1.85s.83,1.85,1.85,1.85h26.05v26.04c0,1.02.83,1.85,1.85,1.85s1.85-.83,1.85-1.85V1.85C50,.83,49.17,0,48.15,0Z"/>
</svg>