<svg width="1920" height="928" viewBox="0 0 1920 928" fill="none" xmlns="http://www.w3.org/2000/svg">
<g filter="url(#filter0_d_2074_180)">
<rect x="1" width="1920" height="920" fill="url(#paint0_radial_2074_180)" fill-opacity="0.1"/>
</g>
<path d="M1390.17 737.526L1435.17 756.593C1467.75 767.83 1503.4 774.19 1535.14 756.534C1536.45 756.696 1537.78 756.803 1539.1 756.94C1498 809.362 1421.05 799.048 1390.18 737.532L1390.17 737.526Z" fill="#B0B0B0"/>
<path d="M1387.13 729.041C1383.66 720.164 1380.74 711.404 1379.76 701.623C1387.35 706.54 1395.7 711.148 1403.65 715.309C1424.61 728.383 1449.13 739.633 1472.47 745.624C1480.11 747.584 1488.18 747.874 1495.83 749.416C1503.49 750.959 1511.7 753.121 1519.63 754.315C1507.33 760.141 1490.49 760.842 1477.17 760.047C1445.62 758.15 1414.78 746.438 1387.13 729.032L1387.13 729.041Z" fill="#B0B0B0"/>
<path d="M1535.13 756.529C1503.4 774.191 1467.74 767.825 1435.16 756.588L1390.16 737.521C1388.82 734.844 1388.19 731.776 1387.12 729.026C1414.77 746.422 1445.61 758.144 1477.16 760.041C1490.48 760.836 1507.32 760.135 1519.63 754.309C1524.77 755.083 1529.98 755.906 1535.13 756.529Z" fill="#D8D8D8"/>
<path d="M1556.28 648.488C1510.26 689.733 1437.75 668.764 1401.06 621.458C1405.03 615.737 1412.65 604.942 1418.56 602.077C1447.34 642.812 1505.92 656.863 1541.31 619.671C1548.17 627.085 1552.87 638.675 1556.28 648.488Z" fill="#D8D8D8"/>
<path d="M1563.13 685.842C1517.55 717.213 1456.35 697.609 1412.89 669.475C1403.66 663.491 1395.71 655.606 1387.09 649.687C1386.12 649.013 1386.27 648.277 1385.89 648.048C1386.54 646.626 1388.14 645.269 1386.45 644.474C1388.86 643.68 1390.07 638.43 1391.69 635.483C1434.54 681.919 1507.48 699.561 1561.25 669.456C1563.21 670.247 1563.02 683.478 1563.13 685.857L1563.13 685.842Z" fill="#B0B0B0"/>
<path d="M1563.41 695.571C1519.79 723.59 1467.02 711.907 1421.71 695.53L1391.98 681.693C1388.8 679.465 1383.42 675.626 1380.71 672.951C1381.82 667.863 1382.19 659.108 1383.78 654.495C1383.99 653.893 1384.45 653.357 1384.72 652.772C1384.99 652.186 1386.97 650.954 1387.09 649.688C1395.71 655.622 1403.65 663.501 1412.89 669.475C1456.35 697.61 1517.55 717.213 1563.12 685.842C1563.28 689.285 1563.54 691.988 1563.42 695.561L1563.41 695.571Z" fill="#D8D8D8"/>
<path d="M1401.05 621.458C1437.75 668.764 1510.26 689.732 1556.28 648.488C1558.29 654.294 1559.85 660.001 1561.39 665.977C1508.8 697.223 1435.57 679.598 1393.44 633.533C1392.52 631.345 1399.96 623.033 1401.05 621.458Z" fill="#B0B0B0"/>
<path d="M1525.87 603.23C1500.89 630.049 1456.23 623.353 1436.97 591.266C1467.18 577.186 1499.14 580.705 1525.87 603.23Z" fill="#D8D8D8"/>
<path d="M1562.76 707.009C1562.74 707.303 1562.15 707.857 1562.14 708.151C1562.06 708.983 1562.24 710.183 1562.2 710.583C1562.19 710.786 1561.91 710.952 1561.89 711.154C1561.87 711.525 1561.5 712.326 1561.46 713.232C1561.39 714.954 1560.18 715.064 1561.41 717.167C1557.47 726.917 1557.61 731.331 1547.09 733.246C1503.49 732.926 1429 707.604 1391.97 681.697L1421.7 695.534C1467.01 711.911 1519.78 723.584 1563.4 695.575C1563.26 699.326 1563.03 703.277 1562.75 707.018L1562.76 707.009Z" fill="#B0B0B0"/>
<path d="M1436.97 591.272C1456.24 623.359 1500.9 630.056 1525.88 603.236C1527.59 604.688 1537.35 612.793 1537.06 614.691C1505.1 651.405 1449.72 636.224 1422.91 599.198C1426.79 594.808 1432.25 593.472 1436.97 591.272Z" fill="#B0B0B0"/>
<path d="M1541.3 619.67C1505.91 656.847 1447.34 642.811 1418.56 602.077C1420 601.377 1419.49 600.454 1421.25 601.595C1423.41 602.986 1430.7 612.552 1433.98 615.333C1465.21 641.818 1508.26 649.632 1538.44 617.25L1539.67 616.922C1539.92 617.69 1540.84 619.156 1541.31 619.66L1541.3 619.67Z" fill="#B0B0B0"/>
<path d="M1539.08 756.943C1537.77 756.807 1536.43 756.693 1535.13 756.537C1529.97 755.915 1524.76 755.092 1519.62 754.317C1511.68 753.124 1503.71 751.012 1495.82 749.419C1464.56 740.411 1433.07 730.75 1403.64 715.312C1395.69 711.141 1387.34 706.543 1379.74 701.625C1364.94 692.035 1307.74 653.096 1354.31 644.015C1362.2 642.476 1382.87 645.663 1386.45 644.474C1388.14 645.269 1386.53 646.627 1385.89 648.048C1382.9 646.259 1365.68 646.209 1361.79 646.905C1345.75 649.781 1339.8 659.46 1351.59 674.616C1384.99 717.539 1524.95 764.243 1575.21 753.883C1612.83 746.123 1579.65 716.734 1562.12 708.154C1562.15 707.85 1562.72 707.306 1562.74 707.012C1572.11 710.958 1607.18 733.759 1600.26 748.157C1593.33 762.554 1551.32 758.22 1539.07 756.947L1539.08 756.943Z" fill="#090909"/>
<path d="M1385.91 648.045C1386.29 648.274 1386.13 649.01 1387.11 649.684C1386.98 650.95 1384.99 652.211 1384.74 652.768C1381.29 652.738 1373.31 652.574 1370.5 654.619L1372.9 652.751C1372.96 652.337 1370.85 651.627 1370.73 651.619C1372.38 649.473 1387.05 652.702 1385.53 649.371C1384.39 646.895 1337.74 645.44 1349.76 667.765C1373.33 711.549 1536.96 766.97 1580.46 750.039C1605.9 740.134 1573.44 716.677 1562.21 710.589C1562.25 710.198 1562.07 708.988 1562.14 708.157C1579.68 716.736 1612.85 746.135 1575.24 753.886C1524.97 764.246 1385.02 717.541 1351.61 674.618C1339.81 659.457 1345.78 649.784 1361.81 646.907C1365.7 646.212 1382.92 646.262 1385.91 648.051L1385.91 648.045Z" fill="#DEDEDE"/>
<path d="M1370.48 654.623C1373.3 652.578 1381.27 652.736 1384.72 652.772C1384.46 653.348 1383.99 653.894 1383.78 654.496C1369.32 654.604 1372.38 664.699 1380.71 672.952C1383.41 675.621 1388.79 679.469 1391.98 681.694C1429.02 707.6 1503.5 732.923 1547.1 733.243C1554.01 733.296 1563.59 735.258 1568.14 727.852C1568.51 722.258 1563.17 720.163 1561.41 717.157C1560.19 715.06 1561.39 714.945 1561.46 713.223C1596.47 736.197 1562.14 738.36 1543.85 737.283C1498.91 734.64 1416.91 707.35 1380.6 677.616C1375.3 673.274 1361.11 661.4 1370.48 654.607L1370.48 654.623Z" fill="#090909"/>
<path d="M1495.83 749.416C1488.17 747.873 1480.11 747.593 1472.47 745.623C1449.13 739.616 1424.6 728.376 1403.65 715.308C1433.08 730.747 1464.57 740.407 1495.83 749.416Z" fill="#D8D8D8"/>
<path d="M1370.72 651.619C1364.84 650.859 1358.46 656.837 1360.16 663.996C1366.41 690.439 1455.67 724.376 1479.44 731.511C1496.9 736.758 1565.24 753.052 1578.65 739.251C1589.85 727.723 1568.88 716.059 1561.9 711.159C1561.91 710.956 1562.19 710.791 1562.21 710.588C1573.43 716.67 1605.88 740.137 1580.45 750.038C1536.96 766.969 1373.33 711.549 1349.76 667.765C1337.75 645.445 1384.39 646.894 1385.52 649.371C1387.05 652.701 1372.37 649.473 1370.72 651.619Z" fill="#090909"/>
<path d="M1370.73 651.619C1370.85 651.637 1372.96 652.337 1372.9 652.75L1370.5 654.618C1361.13 661.411 1375.33 673.291 1380.62 677.626C1416.93 707.351 1498.93 734.651 1543.86 737.294C1562.16 738.371 1596.49 736.199 1561.48 713.234C1561.51 712.332 1561.88 711.521 1561.91 711.156C1568.9 716.062 1589.87 727.719 1578.67 739.248C1565.27 753.054 1496.92 736.76 1479.45 731.507C1455.69 724.373 1366.43 690.435 1360.18 663.992C1358.48 656.833 1364.86 650.856 1370.74 651.615L1370.73 651.619Z" fill="#DEDEDE"/>
<path d="M478.811 225.327C476.633 231.243 471.953 235.128 468.034 239.495C479.725 228.739 472.431 219.702 465.765 209.41C478.069 207.306 482.781 213.233 476.269 226.146L479.467 221.985C480.194 223.132 479.195 224.308 478.821 225.323L478.811 225.327Z" fill="#FCFCFC"/>
<path d="M458.708 214.874C458.647 215.016 458.499 214.961 458.323 215.764C440.671 234.628 419.064 249.565 395.572 257.107C390.542 259.548 380.16 256.906 376.346 258.183C376.308 258.201 376.235 257.4 375.548 257.843C376.189 256.326 374.894 256.444 374.925 255.989C375.072 253.968 376.027 249.958 376.209 247.526C398.501 251.444 425.073 240.631 442.779 223.706C444.448 222.116 454.838 209.937 455.242 208.62C458.004 205.53 457.278 213.328 458.718 214.87L458.708 214.874Z" fill="#A8A8A8"/>
<path d="M454.101 201.376C454.515 203.939 456.006 204.759 454.983 208.116C454.587 209.43 444.185 221.625 442.515 223.216C424.804 240.158 398.221 250.972 375.925 247.059C376.125 244.515 375.949 243.343 376.433 240.384C406.797 246.574 432.94 224.442 454.091 201.38L454.101 201.376Z" fill="#929292"/>
<path d="M450.181 194.077C431.897 217.61 405.751 241.362 376.822 234.071C377.444 231.478 378.169 229.03 379.117 226.534C400.932 230.43 432.574 213.913 442.359 191.262C445.518 192.193 447.234 192.935 450.181 194.077Z" fill="#929292"/>
<path d="M450.352 194.566C451.15 194.873 452.166 195.927 452.966 196.21C454.811 198.02 453.587 199.325 453.827 200.82C432.667 223.908 406.519 246.075 376.14 239.869C376.452 237.982 376.607 236.337 377.064 234.428C405.967 241.707 432.083 218.017 450.349 194.557L450.352 194.566Z" fill="#A8A8A8"/>
<path d="M438.985 189.892C428.422 210.49 402.441 223.747 382.868 217.494C384.383 214.817 385.448 212.837 387.363 210.381C403.578 217.181 421.868 204.282 431.784 188.957C435.13 189.118 435.771 189.216 438.978 189.906L438.985 189.892Z" fill="#929292"/>
<path d="M442.143 190.987C432.382 213.527 400.788 229.966 378.997 226.093C380.404 222.423 381.193 221.085 383.073 217.76C402.631 224.005 428.587 210.787 439.136 190.24C440.377 190.51 440.917 190.631 442.134 190.991L442.143 190.987Z" fill="#A8A8A8"/>
<path d="M423.977 188.163C418.755 202.639 402.389 212.602 389.398 206.534C399.793 194.998 409.852 189.874 423.977 188.163Z" fill="#929292"/>
<path d="M431.612 188.567C421.694 203.902 403.392 216.812 387.183 210.004C387.973 208.989 388.815 207.543 389.539 206.752C402.507 212.772 418.831 202.88 424.031 188.511C427.382 188.104 428.562 188.415 431.621 188.563L431.612 188.567Z" fill="#A8A8A8"/>
<path d="M466.982 209.03C473.431 218.853 480.498 227.476 468.957 237.957C448.548 260.352 416.36 283.714 388.695 288.121C385.801 285.159 383.061 281.675 381.134 277.844C388.307 275.216 395.983 275.03 403.252 272.529C424.169 265.34 444.822 249.018 460.05 231.959C464.05 227.477 475.496 217.731 467.933 212.953C466.282 217.169 463.486 220.635 460.949 224.256C459.415 225.99 458.939 216.875 459.037 216.415C459.22 215.581 459.363 215.652 459.425 215.508C459.61 215.076 464.428 207.954 464.846 207.861C465.579 207.7 464.654 209.458 466.966 209.049L466.982 209.03Z" fill="#747474"/>
<path d="M459.945 232.421C444.854 249.102 424.367 265.048 403.611 272.08C396.402 274.525 388.798 274.702 381.675 277.276C380.8 275.545 379.769 273.19 379.013 271.394C378.63 270.481 379.02 269.063 378.36 267.424C405.486 268.534 440.393 252.273 458.693 228.73L459.936 232.425L459.945 232.421Z" fill="#A8A8A8"/>
<path d="M459.01 232.751L457.737 228.878C458.947 227.29 459.288 225.761 459.933 224.853C462.513 221.153 465.35 217.591 467.026 213.271C474.708 218.167 463.08 228.144 459.02 232.747L459.01 232.751Z" fill="#8A8A8A"/>
<path d="M476.534 248.317C468.844 256.913 454.847 270.169 445.503 276.775C433.468 285.28 419.777 290.737 407.352 298.365C397.724 297.83 381.526 306.598 369.018 306.898C336.478 307.679 365.107 270.77 375.046 257.335C375.015 257.799 376.32 257.682 375.675 259.23C372.288 261.399 362.593 277.347 360.328 281.779C336.802 327.738 414.561 292.566 428.146 284.946C440.107 278.228 450.517 268.907 461.03 259.998C461.694 259.432 462.241 258.841 462.617 258.526C463.754 257.542 465.717 257.957 467.701 256.136C472.767 251.483 478.489 243.939 482.911 238.402C475.817 244.515 469.672 252.431 462.608 258.53C462.006 259.055 461.353 259.72 461.021 260.003C442.046 276.071 417.777 290.639 395.187 298.25C385.018 301.682 357.382 310.419 356.949 292.498C356.93 291.551 359.912 282.17 360.309 281.788C360.625 281.489 361.486 281.188 361.615 281.543C346.663 319.563 407.665 291.508 421.307 285.244C421.672 283.217 420.603 284.307 419.686 284.542C408.31 287.527 373.76 306.835 363.44 297.471C353.12 288.107 371.428 268.617 376.46 259.587C380.301 258.289 390.762 261.003 395.826 258.519C419.485 250.867 441.23 235.641 458.99 216.408C458.892 216.869 459.379 226.002 460.911 224.267C460.29 225.159 459.952 226.643 458.753 228.198C440.317 252.303 405.143 268.908 377.786 267.726C377.326 266.57 376.775 266.622 376.562 266.111C376.191 265.225 378.258 263.849 376.026 263.446C330.226 326.69 420.927 283.936 440.973 269.416C452.43 261.113 487.786 226.99 489.569 212.617C491.321 198.545 471.781 202.578 463.759 204.677C465.819 206.833 470.298 204.001 473.192 203.898C493.358 203.134 489.628 211.643 480.227 226.14L479.598 224.245C479.971 223.262 480.963 222.104 480.253 221.02L477.095 225.064C483.562 212.558 478.983 206.894 466.931 209.031C464.619 209.438 465.542 207.678 464.809 207.838C464.382 207.935 459.58 215.058 459.396 215.491C457.956 213.919 458.669 205.963 455.888 209.104C456.902 205.676 455.403 204.847 454.992 202.227C454.749 200.704 455.989 199.372 454.12 197.529C459.924 199.643 461.798 196.468 467.645 195.552C475.226 194.363 498.193 190.219 501.837 199.551C505.969 210.152 483.705 240.3 476.515 248.326L476.534 248.317Z" fill="#929292"/>
<path d="M376.711 266.08C346.887 305.914 384.035 294.907 406.601 285.35C421.577 279.014 432.219 272.965 445.385 262.791C458.228 252.861 471.046 240.198 480.184 226.177C489.322 212.155 493.318 203.304 473.202 204.119C470.318 204.238 465.845 207.059 463.791 204.914C471.797 202.812 491.306 198.761 489.526 212.734C487.714 227.008 452.388 260.955 440.954 269.217C420.942 283.669 330.376 326.303 376.172 263.44C378.398 263.835 376.343 265.201 376.702 266.084L376.711 266.08Z" fill="#FCFCFC"/>
<path d="M361.526 282.127C361.13 282.506 358.144 291.755 358.165 292.7C358.567 310.376 386.086 301.694 396.212 298.287C418.699 290.732 442.882 276.293 461.796 260.411C451.318 269.222 440.946 278.449 429.027 285.094C415.494 292.641 338.047 327.51 361.535 282.123L361.526 282.127Z" fill="#FCFCFC"/>
<path d="M376.592 258.298C377.294 257.849 377.364 258.668 377.403 258.65C372.301 267.82 354.342 288.099 364.205 297.085C374.601 306.554 409.487 286.889 420.973 283.847C421.895 283.597 422.979 282.499 422.607 284.555C408.833 290.937 347.241 319.52 362.389 280.942C362.269 280.578 361.39 280.89 361.071 281.193C363.363 276.696 373.17 260.505 376.592 258.298Z" fill="#F3F3F3"/>
<path d="M474.687 242.376C480.969 232.292 503.216 203.985 483.935 200.396L459.1 203.552C468.283 199.676 495.138 192.176 494.328 209.371C494.047 215.5 479.426 237.513 474.691 242.386L474.687 242.376Z" fill="#FCFCFC"/>
<path d="M483.642 233.378C487.678 226.947 499.024 208.286 495.615 201.128C491.502 192.472 464.282 200.033 456.959 201.541C455.935 199.168 480.367 195.26 483.475 195.295C510.631 195.645 493.716 219.764 483.642 233.378Z" fill="#FCFCFC"/>
<path d="M462.633 260.657C469.7 254.569 475.85 246.675 482.945 240.574C478.52 246.096 472.792 253.619 467.725 258.262C465.739 260.079 463.78 259.67 462.642 260.653L462.633 260.657Z" fill="#FCFCFC"/>
<path d="M468.193 251.418C464.405 256.762 457.639 262.716 452.264 265.749C457.329 260.673 462.98 256.279 468.193 251.418Z" fill="#E7E7E7"/>
<path d="M484.569 233.951C482.306 237.535 480.514 241.685 476.73 243.891C478.83 240.21 482.099 237.274 484.569 233.951Z" fill="#FCFCFC"/>
<path d="M427.843 281.991C428.411 281.649 433.484 279.398 433.591 279.685L424.311 285.761C422.814 284.952 427.519 282.186 427.843 281.991Z" fill="#F3F3F3"/>
<path d="M438.594 275.517C440.108 276.856 434.415 279.829 433.84 278.823C435.02 277.236 437.758 277.513 438.594 275.517Z" fill="#E7E7E7"/>
<path d="M447.27 269.321C447.899 268.855 449.3 268.221 450.061 268.378L446.49 271.135C445.753 271.115 447.191 269.381 447.27 269.321Z" fill="#E2E2E2"/>
<path d="M485.722 235.7C485.313 236.393 484.9 239.04 483.231 238.714C483.455 237.192 485.12 236.473 485.722 235.7Z" fill="#E7E7E7"/>
<path d="M444.573 271.296C446.8 270.394 445.463 273.494 443.387 272.958C443.895 272.602 444.484 271.327 444.573 271.296Z" fill="#D9D9D9"/>
<path d="M439.707 275.043C440.063 274.707 442.344 273.719 442.494 274.103C441.804 275.687 438.079 276.588 439.707 275.043Z" fill="#E2E2E2"/>
<path d="M475.808 242.481C475.553 242.74 474.859 245.218 473.722 244.564C473.83 242.999 475.615 242.792 475.808 242.481Z" fill="#FCFCFC"/>
<path d="M467.908 251.418C468.018 251.32 468.056 248.705 469.997 249.329C469.755 250.162 468.155 251.069 467.908 251.418Z" fill="#E7E7E7"/>
<path d="M489.999 227.574C491.436 226.634 491.065 228.531 489.819 229.146C489.097 229.103 489.9 227.644 489.999 227.574Z" fill="#E7E7E7"/>
<path d="M486.91 233.558C487.061 233.347 486.969 231.056 488.407 231.739C488.355 232.955 487.048 233.341 486.91 233.558Z" fill="#E7E7E7"/>
<path d="M450.568 267.04C451.374 266.244 452.217 267.353 451.6 268.048C450.843 268.891 449.922 267.678 450.568 267.04Z" fill="#D9D9D9"/>
<path d="M487 233.559C486.424 234.486 486.53 234.506 485.611 235.699C486.206 234.694 486.341 234.502 487 233.559Z" fill="#FCFCFC"/>
<path d="M463.008 260.639C462.636 260.962 462.09 261.549 461.424 262.101C461.756 261.82 462.405 261.151 463.008 260.639Z" fill="#FCFCFC"/>
<path d="M477.567 250.65C471.779 283.351 448.627 304.998 417.899 302.618C415.022 302.393 411.544 300.624 408.544 300.456C420.941 292.866 434.606 287.449 446.61 278.975C455.923 272.405 469.893 259.196 477.567 250.65Z" fill="#747474"/>
<path d="M469.966 268.568C471.06 269.274 469.256 272.83 468.842 273.409C463.602 280.677 438.332 298.416 430.72 301.232C430.4 301.347 425.244 300.509 424.127 301.063C439.995 291.199 456.967 283.038 469.956 268.572L469.966 268.568Z" fill="#8A8A8A"/>
<path d="M379.472 270.552C380.281 272.478 381.356 275 382.27 276.841C384.273 280.849 387.106 284.504 390.092 287.62C388.418 287.875 386.827 289.449 383.855 289.016C372.831 287.409 373.399 279.291 379.459 270.546L379.472 270.552Z" fill="#FCFCFC"/>
<path d="M377.28 266.247C377.493 266.752 378.05 266.698 378.5 267.844C379.166 269.503 378.769 270.94 379.165 271.86C373.227 280.22 372.618 287.936 383.339 289.386C386.216 289.78 387.777 288.257 389.409 288.011C416.902 283.764 448.841 260.807 469.067 238.74C472.902 234.556 477.486 230.821 479.628 225.182L480.256 227.052C471.198 240.949 458.467 253.477 445.703 263.29L407.134 285.536C384.681 294.932 347.704 305.704 377.289 266.243L377.28 266.247Z" fill="#CBCBCB"/>
<path d="M446.077 264.434C433.072 274.282 422.535 280.132 407.713 286.237L446.077 264.434Z" fill="#929292"/>
<path d="M377.661 265.849C376.642 271.893 370.808 278.375 367.993 284.231C369.428 277.306 373.764 271.474 377.661 265.849Z" fill="#FCFCFC"/>
<path d="M551.748 656.955C541.3 699.559 536.417 701.271 506.728 673.814C474.331 643.856 446.394 593.551 439.346 546.52C447.339 543.651 454.877 540.821 463.314 540.105C478.369 590.125 507.769 635.778 551.735 656.979L551.748 656.955Z" fill="#4E4E4E"/>
<path d="M493.645 543.995C498.531 574.846 524.441 603.578 550.811 611.574C553.843 625.411 555.889 635.759 553.565 650.482C511.932 635.068 478.852 588.067 468.547 539.92C477.994 539.785 484.558 540.605 493.633 544.019L493.645 543.995Z" fill="#4E4E4E"/>
<path d="M550.626 605.597C526.22 601.945 500.607 573.356 498.094 545.198C522.974 556.676 542.032 576.368 550.626 605.597Z" fill="#4E4E4E"/>
<path d="M553.572 650.458C552.993 654.123 552.283 654.739 551.742 656.953C507.776 635.752 478.376 590.099 463.321 540.079C465.194 539.923 466.705 539.904 468.555 539.896C478.847 588.066 511.927 635.067 553.572 650.458Z" fill="#CBCBCB"/>
<path d="M498.103 545.174C500.604 573.356 526.217 601.945 550.635 605.573C551.414 608.225 550.487 610.036 550.797 611.535C524.427 603.54 498.504 574.831 493.631 543.957C495.042 544.492 495.896 544.142 498.103 545.174Z" fill="#CBCBCB"/>
<path d="M505.198 676.615C516.155 686.647 529.743 691.044 536.185 696.543C547.379 706.085 567.47 772.834 536.926 776.811C506.858 780.761 477.69 740.727 456.584 729.841C441.779 722.219 430.915 727.663 411.27 709.529C388.589 688.595 394.463 670.791 386.122 649.002C378.937 630.23 360.084 609.632 352.05 586.056C325.933 509.435 385.346 524.188 420.876 556.818C425.53 554.253 429.654 551.019 434.554 548.957C447.675 596.593 470.362 644.672 505.177 676.6L505.198 676.615Z" fill="#4E4E4E"/>
<path d="M506.726 673.814L505.202 676.616C470.408 644.703 447.7 596.609 434.579 548.973C436.151 548.308 437.203 547.276 439.337 546.482C446.405 593.527 474.321 643.817 506.718 673.776L506.726 673.814Z" fill="#CBCBCB"/>
<path d="M405.167 631.326C410.847 642.629 426.191 664.004 434.406 673.35C441.924 681.908 485.837 724.264 492.752 726.187C497.404 727.498 515.291 714.229 520.324 711.604C467.627 686.41 429.036 626.418 415.105 564.41C413.143 566.64 408.801 565.449 408.492 565.592C353.992 534.591 372.565 596.229 387.932 626.951C408.453 667.981 471.31 739.149 512.674 746.094C549.579 752.324 525.594 711.248 526.627 706.325C529.244 693.715 539.703 721.106 541.076 725.262C573.05 822.247 458.423 725.455 439.003 705.738C417.158 683.587 342.85 586.694 354.53 551.794C364.227 522.823 397.917 551.624 412.19 560.382C412.8 560.746 417.623 558.4 418.199 558.774C419.65 559.765 424.685 590.129 426.941 596.058C444.619 642.475 472.626 674.724 509.031 702.616C511.293 704.343 523.556 708.365 525.354 710.257C532.303 717.527 533.408 739.894 515.3 738.188C481.422 734.982 413.062 659.931 399.95 623.735L405.221 631.332L405.167 631.326Z" fill="white"/>
<path d="M405.173 631.327C404.348 629.661 394.443 607.458 394.171 606.05C392.515 597.85 402.736 595.337 394.44 594.575C398.553 586.799 402.908 579.161 407.055 571.376C407.19 569.697 405.495 569.684 404.983 568.928C409.715 569.508 407.826 565.874 408.511 565.569C408.82 565.426 413.149 566.641 415.124 564.387C429.042 626.419 467.646 686.387 520.343 711.581C515.31 714.206 497.443 727.49 492.771 726.164C485.868 724.218 441.922 681.87 434.425 673.327C426.21 663.981 410.886 642.62 405.186 631.303L405.173 631.327Z" fill="#4E4E4E"/>
<path d="M404.94 568.935C405.465 569.667 407.168 569.719 407.013 571.383C402.879 579.145 398.51 586.807 394.397 594.583C392.192 598.744 391.882 606.74 388.14 607.68C385.202 597.064 372.397 572.026 380.991 562.747C385.667 557.701 401.221 563.682 404.94 568.935Z" fill="white"/>
<defs>
<filter id="filter0_d_2074_180" x="-3" y="0" width="1928" height="928" filterUnits="userSpaceOnUse" color-interpolation-filters="sRGB">
<feFlood flood-opacity="0" result="BackgroundImageFix"/>
<feColorMatrix in="SourceAlpha" type="matrix" values="0 0 0 0 0 0 0 0 0 0 0 0 0 0 0 0 0 0 127 0" result="hardAlpha"/>
<feOffset dy="4"/>
<feGaussianBlur stdDeviation="2"/>
<feColorMatrix type="matrix" values="0 0 0 0 0 0 0 0 0 0 0 0 0 0 0 0 0 0 0.25 0"/>
<feBlend mode="normal" in2="BackgroundImageFix" result="effect1_dropShadow_2074_180"/>
<feBlend mode="normal" in="SourceGraphic" in2="effect1_dropShadow_2074_180" result="shape"/>
</filter>
<radialGradient id="paint0_radial_2074_180" cx="0" cy="0" r="1" gradientUnits="userSpaceOnUse" gradientTransform="translate(494.5 578.5) rotate(-50.2905) scale(839.731 1422.28)">
<stop stop-color="#56F4FF"/>
<stop offset="1" stop-color="#F6FEFF" stop-opacity="0.053876"/>
<stop offset="1" stop-color="white" stop-opacity="0"/>
</radialGradient>
</defs>
</svg>
